<svg id="Layer_1" height="512" viewBox="0 0 150 150" width="512" xmlns="http://www.w3.org/2000/svg" data-name="Layer 1"><circle cx="75" cy="75" fill="#e05b49" r="64"/><path d="m49.68 90.77h22.41v8.06h-22.41z" fill="#2f4859"/><rect fill="#3a556a" height="41.75" rx="2.04" width="57.19" x="32.28" y="50.18"/><path d="m35.79 53.68h50.18v31.24h-50.18z" fill="#27a2db"/><path d="m74.9 97.84h-28a1 1 0 0 0 0 2h28a1 1 0 1 0 0-2z" fill="#3a556a"/><path d="m60.88 86.78a1.63 1.63 0 1 0 1.63 1.63 1.63 1.63 0 0 0 -1.63-1.63z" fill="#2f4859"/><rect fill="#2f4859" height="49.64" rx="2.61" width="26.14" x="91.58" y="50.18"/><path d="m95.02 53.68h19.25v6.04h-19.25z" fill="#3a556a"/><path d="m95.02 61.13h19.25v6.04h-19.25z" fill="#3a556a"/><path d="m95.02 68.57h19.25v6.04h-19.25z" fill="#3a556a"/><path d="m104.65 82.18a2 2 0 1 0 2 2 2 2 0 0 0 -2-2z" fill="#3a556a"/><path d="m44.62 61.32h32.52v18.93h-32.52z" fill="#e1e6e9"/><path d="m44.62 56.9h32.52v5.04h-32.52z" fill="#3a556a"/><path d="m66.58 58.61a.89.89 0 1 0 .88.88.88.88 0 0 0 -.88-.88z" fill="#e1e6e9"/><path d="m70.25 58.61a.89.89 0 1 0 .88.88.88.88 0 0 0 -.88-.88z" fill="#e1e6e9"/><path d="m73.92 58.61a.89.89 0 1 0 .88.88.88.88 0 0 0 -.88-.88z" fill="#e1e6e9"/><g fill="#d5d6db"><path d="m48.45 64.15h24.86v.76h-24.86z"/><path d="m48.45 67.35h24.86v.76h-24.86z"/><path d="m48.45 70.56h24.86v.76h-24.86z"/><path d="m48.45 73.77h24.86v.76h-24.86z"/><path d="m48.45 76.97h24.86v.76h-24.86z"/></g></svg>